<svg xmlns="http://www.w3.org/2000/svg" viewBox="0 0 100 100">
  <rect width="100" height="100" fill="#000"/>
  <!-- Brush-stroke benzeri kaligrafik m -->
  <path d="M 15 75 
           C 15 60, 20 50, 30 50
           C 35 50, 38 55, 38 62
           C 38 58, 42 55, 45 55
           C 48 55, 50 58, 50 62
           C 50 58, 52 55, 55 55
           C 58 55, 60 58, 60 62
           C 60 50, 70 50, 80 60
           C 80 70, 75 75, 70 75
           L 70 75
           C 70 68, 65 65, 60 65
           C 58 65, 56 67, 56 70
           L 56 75
           C 56 68, 54 65, 50 65
           C 48 65, 46 67, 46 70
           L 46 75
           C 46 68, 44 65, 40 65
           C 38 65, 36 67, 36 70
           L 36 75
           C 36 68, 34 65, 30 65
           C 28 65, 26 67, 26 70
           L 26 75
           Z" 
        fill="#fe0000"/>
</svg>
