<svg width="791" height="264" viewBox="0 0 791 264" fill="none" xmlns="http://www.w3.org/2000/svg">
<g clip-path="url(#clip0_1_2)">
<path d="M538.04 77C536.16 76.58 536.11 77.63 535.21 78.67C531.85 82.54 528.62 89.21 525.03 93.46C502.36 120.37 481.29 116.1 486.09 78C481.38 77.63 478.74 82.84 475.6 84.98C471.91 87.49 459.11 93.61 457.64 96.99C456.24 107.44 455.87 118.46 450.54 127.85C444.21 138.99 433.95 147.09 420.7 147.95C402.09 149.15 387.6 135.78 401.82 119.09L443.2 94.54L445.13 78C442.86 79.55 441.64 83.01 439.68 85.02C435.23 89.61 423.24 99.09 417.17 100.48C404.94 103.28 400.33 98.89 394.68 89C386.27 97.54 380.15 110.31 365.96 106.72C353.11 103.46 357.48 69.3 356.13 59.61C355.06 51.96 350.21 51.24 344.72 56.01C339.87 60.22 319.54 92.66 317.7 98.91C315.74 105.56 318.65 109.65 307.27 107.46C305.63 106.22 304.66 104.44 304.34 102.41C302.91 93.37 308.27 79.59 307.27 70C305.61 70.88 304.04 72.58 302.77 73.98C294.52 83.08 285.61 94.08 274.33 99.48C261.52 105.62 253.42 104.29 250.79 89.03C250.31 86.24 251.02 72.99 248.85 73.01C246.57 76.46 245.21 80.54 242.79 83.91C238.98 89.22 223.23 105.11 217.39 106.46C202.34 109.92 199.59 97.61 196.89 85.96C188.3 92.71 181.3 106.28 168.66 106.69C166.57 106.76 161.6 105.76 160.37 104.26C151.31 93.23 160.66 69.49 161.01 55.99C161.05 54.6 161.69 54.07 159.88 53.03C158.37 52.65 155.48 54.32 154.11 55.18C150.05 57.74 132.2 82.69 129.05 88.06C127.04 91.49 122.9 103.93 120.24 105.23C116.54 107.04 109.37 105.29 109.41 100.48L118.05 53.99C112.82 46.7 100.54 68.08 98.62 71.62C95.8 76.81 89.21 89.23 87.34 94.3C85.99 97.96 85.71 100.96 84.58 104.53C77.75 106.11 72.14 105.27 71.57 97.42C71.39 94.93 73.12 91.14 73.41 88.36C74.89 73.94 77.6 59.29 74.93 44.99C100.22 32.56 86.85 63.48 88.51 76.51C88.69 77.9 89.04 79.4 90.49 77.99C93.89 71.72 95.95 62.37 99.66 56.64C102.48 52.29 111.93 41.85 116.43 39.49C120.35 37.43 126.08 35.3 129.5 39.51C135.17 46.48 125.89 71.53 127.48 80.99L134.64 65.68C138.66 58.5 154.3 40.04 162.15 38.25C170.67 36.31 176.38 40.55 176.1 49.37C175.75 60.24 169.3 75.39 169.35 86.48C169.39 94.36 172.14 95.73 178.76 91.81C201.97 78.07 205.31 33.9 242.6 39.29C245.69 39.74 254.04 43.81 254.87 43.75C255.56 43.69 257.59 40.92 259.87 40.06C263.14 38.83 266.91 38.98 270.34 39.04C266.9 53.13 260.52 69.94 264.05 84.8C266.05 93.2 272.78 89.54 278.37 86.52C283.82 83.58 289.19 77.28 293.29 72.47C295.13 70.31 306.26 56.25 306.78 54.97C307.89 52.18 306.86 50.77 306.32 48.09C331.97 35.85 315.94 68.32 319.78 80.99C326.22 69.74 340.32 41.3 354.75 40C374.55 38.22 368.83 75.22 370.33 86.4C372.39 101.8 382.75 90.73 388.2 84.46C398.65 72.43 401.97 58.96 414.85 48.18C424.02 40.5 440.17 39.03 450.53 44.9C455.22 38.21 459.76 35.84 468.14 36.05C464.22 49.92 460.95 64.26 459.28 78.62C459.08 80.3 458.07 85.5 460.67 85.01C467.7 83.69 487.22 63.46 493.65 58.04C507.36 46.48 516.84 37.3 536.09 44.52C537.92 45.21 539.96 47.73 540.57 47.78C541.38 47.85 549.73 41.12 555.54 41.99C561.01 42.81 554.28 53 553.31 56.76C551.22 64.86 550.09 79.27 551.05 87.5C552.01 95.74 557.34 94.24 562.95 91.37C571.59 86.94 591.27 65.48 595.09 56.58C596.59 53.07 602.59 24.47 602.04 21.57C601.89 20.77 601.82 19.99 601.08 19.49C596.63 18.83 591.31 19.42 587.99 15.59C586.69 14.09 583.24 6.02001 586.54 6.03001C591.34 6.05001 596.85 9.06001 602.49 9.14001C608.52 9.22001 612.35 6.62001 617.99 6.07001L603.11 77.59C603.67 82.96 599.73 92.5 603.54 96.93C611.01 105.61 628.31 85.83 632.39 79.9C635.03 76.06 642.86 60.15 645.96 58.46C647.03 57.88 647.92 57.78 648.96 58.46C653.75 60.95 647.82 69.14 645.97 72.5C640.65 82.21 627.21 100.53 618.33 106.79C603.15 117.49 589.19 110.34 588.49 92C588.4 89.75 591.06 79.95 588.52 80C582.27 86.37 574.67 94.6 567.52 99.94C561.02 104.79 551.41 109.89 543.54 104.98C541.21 103.53 538.07 96.86 538.07 94.47V76.99L538.04 77ZM225.69 88.32C227.21 87.04 229.5 86.37 230.85 84.98C238.74 76.82 244.15 65.41 251.84 57.01C254.25 53.66 243.67 49.55 241 48.86C237.68 48 234.26 47.68 230.85 48.03C217.71 49.37 209.77 74.15 211.62 85.25C212.52 90.64 216.61 96.3 222.32 92.44C224.17 91.19 224.6 89.25 225.69 88.33V88.32ZM431.9 49.24C429.36 49.61 421.12 53.88 419.23 55.59C412.74 61.47 403.7 91.91 416.9 89.32C424.7 87.79 434.17 78.57 439.11 72.47C440.85 70.32 447.43 60.28 447.95 58.27C449.44 52.52 436.77 48.53 431.9 49.24ZM517.83 51.21C516.84 51.37 511.7 53.55 510.72 54.17C501.83 59.75 491.28 99.74 507.34 96.82C509.95 96.35 519.25 86.61 521.58 84C524.69 80.52 538.4 62.6 538.92 59.29C539.72 54.16 521.82 50.55 517.83 51.21ZM441.79 105.08C434.95 111.22 415 117.21 412.13 125.39C406.8 140.58 421.73 143.61 432.07 136.34C441.85 129.46 442.45 117.38 444.09 106.56L441.8 105.08H441.79Z" fill="#404040"/>
<path d="M699.27 125.78C697.39 122.49 695.72 119.04 694.32 115.52C692.96 112.14 692.16 108.13 691.95 103.6C691.71 98.05 692.06 93.05 692.98 88.75C693.93 84.35 695.07 80.08 696.38 76.06C697.73 71.89 698.91 67.6 699.9 63.29C700.91 58.86 701.3 53.81 701.05 48.29C701.05 45.18 700.47 41.32 699.34 36.82C698.21 32.3 696.43 27.64 694.04 22.99C691.63 18.29 688.41 13.92 684.48 9.98001C680.4 5.91001 675.3 3.05001 669.32 1.50001L663.58 0.0100098L666.52 5.16001C668.35 8.37001 669.93 12.29 671.2 16.79C672.48 21.33 673.24 26.11 673.47 30.98C673.7 36.55 673.35 41.42 672.44 45.43C671.49 49.58 670.35 53.6 669.05 57.37C667.69 61.31 666.51 65.3 665.53 69.23C664.5 73.31 664.11 78.19 664.36 83.74C664.36 86.6 664.88 90.21 665.89 94.45C666.9 98.74 668.56 103.22 670.82 107.74C673.12 112.34 676.35 116.68 680.42 120.62C684.58 124.65 689.96 127.62 696.42 129.43L702.3 131.08L699.27 125.78Z" fill="#404040"/>
<path d="M737.9 205.46C737.95 205.46 738 205.46 738.06 205.46L738.18 205.44C744.78 203.35 751.93 198.12 750.35 190.21L750.29 190.06C750.08 189.59 749.75 189.27 749.29 189.1C746.7 188.39 741.67 191.61 738.61 195.07L737.56 198.18C738.03 197.38 738.63 196.56 739.36 195.73C742.2 192.52 746.31 189.98 748.46 189.98C748.66 189.98 748.84 190 749 190.05C749.11 190.09 749.26 190.17 749.39 190.46L749.41 190.49C750.83 197.64 744.14 202.47 737.95 204.46C737.24 204.46 736.8 203.94 736.6 203.41C736.4 202.93 736.32 202.39 736.33 201.82L735.67 203.78C736.07 204.82 736.94 205.46 737.92 205.46H737.9Z" fill="#404040"/>
<path d="M787.65 192.34C786.41 191.61 785.36 191.38 784.42 191.63C782.61 192.1 781.32 194.34 780.08 196.5C779.31 197.84 778.5 199.24 777.56 200.22L776.88 200.96C768.85 209.64 756.72 222.75 745.15 224.02C741.47 224.37 738.72 223.99 736.75 222.86C734.72 221.69 733.51 219.84 733.87 218.47C734.08 217.68 734.83 216.74 737.29 216.71C746.12 216.23 755.18 211.69 760.36 205.16C764.08 200.47 765.53 195.1 764.55 189.63C763.96 186.89 761.2 183.59 758.99 182.23C757.87 181.51 756.06 181.44 754.13 181.38C753.74 181.37 753.36 181.35 752.97 181.34C747.79 181.21 740.61 181.25 737.58 181.55C735.6 181.75 734.15 182.81 732.47 184.04C732.2 184.24 731.93 184.44 731.65 184.64C725.27 188.72 723.24 193.8 721.1 199.18C719.88 202.25 718.61 205.42 716.5 208.6C714.24 211.58 711.12 214.63 708.37 217.32C707.78 217.9 707.21 218.46 706.66 219C704.88 220.91 702.84 221.78 701.33 221.25C700.5 220.96 699.48 220.11 699.32 217.74C699.24 213.16 700.43 208.4 701.59 203.79C702.36 200.71 703.09 197.81 703.47 194.97C704.3 188.9 703.73 185.14 701.67 183.15C698.99 180.56 693.79 180.86 685.71 182.26C685.1 182.48 684.5 182.89 683.77 183.62C682.49 184.94 680.4 187.1 678.22 189.36L674.22 193.5C673.79 193.92 673.29 194.45 672.78 195C670.67 197.23 670 197.86 669.44 197.67C669.27 197.64 669.12 197.54 669 197.4C668.75 197.09 668.58 196.5 668.95 194.34C669.09 193.53 669.29 192.72 669.47 191.94C670.13 189.14 670.76 186.5 669.41 183.96C667.86 181.64 664.58 179.17 660.54 179.96L659.53 180.19C656.55 180.85 653.48 181.54 651.1 183.32C648.3 185.47 645.48 190.15 643.1 194.45C642.11 196.29 641.28 197.2 640.39 197.37C639.75 197.44 639.23 197.27 638.82 196.89C637.58 195.74 637.64 192.9 637.68 191.02V190.53C637.68 188.28 637.24 186.46 636.36 185.13C635.3 183.48 633.46 182.44 631.17 182.22C628.46 181.95 625.53 182.9 623.89 184.59C622.68 185.91 622.74 187.66 622.8 189.51C622.86 191.22 622.92 192.99 621.96 194.53C619.46 198.97 613.23 206.2 608.37 211.04C607.15 212.24 605.81 213.14 604.39 214.09C603 215.02 601.56 215.97 600.26 217.24C599.76 217.69 599.31 218.2 598.87 218.69C597.91 219.76 596.92 220.87 595.48 221.45C594.55 221.78 592.24 222.43 590.53 221.43L590.39 221.33C588.87 219.97 590.28 216.28 591.53 213.02C591.98 211.84 592.41 210.73 592.54 210.08C593.46 207.65 593.42 205.19 593.38 202.59C593.35 201.04 593.33 199.43 593.52 197.84C593.66 196.83 593.98 195.85 594.28 194.91C594.73 193.49 595.16 192.15 595.05 190.74C594.64 185.85 589.38 185.27 584.74 184.75C583.46 184.61 582.25 184.47 581.18 184.26C578.02 183.43 575.98 181.88 574.17 180.51C571.06 178.15 568.81 176.45 562.75 180.29C561.54 180.89 560.3 181.18 559.1 181.47C557.28 181.91 555.57 182.32 554.35 183.62C553.74 184.23 553.06 184.88 552.34 185.57C550.17 187.66 547.71 190.02 546.2 192.05C545.99 192.36 545.8 192.74 545.6 193.15C545.18 193.98 544.75 194.85 543.97 195.39C543.4 195.71 542.97 195.72 542.64 195.47C541.98 194.96 542.26 193.69 542.74 191.81C542.87 191.3 543.02 190.72 543.02 190.52C543.13 188.23 542.63 184.92 540.87 183.02C540 182.08 538.91 181.59 537.63 181.56C533.68 181.56 530.95 182.41 529.32 184.12C526.84 186.72 527.04 191.2 527.25 195.94C527.36 198.44 527.48 201.03 527.22 203.54C526.67 209.03 525.56 214.9 524.49 220.58L524.29 221.63C524.09 222.51 523.81 223.29 523.54 224.05C523.09 225.31 522.67 226.5 522.73 227.82C522.85 229.73 524.28 232.18 525.92 233.27C528.7 234.94 533.65 234.6 535.72 232.58C537.2 231.1 537.67 228.72 538.21 225.97L538.29 225.58C539.02 221.24 540.42 217.81 542.99 214.16C544.12 212.57 545.22 210.93 546.29 209.35C549.58 204.46 552.69 199.84 556.6 196.63L556.73 196.53C561.36 193.15 562.19 192.55 567.75 194.15C569.58 194.45 571.15 193.66 572.13 192.95C572.5 192.68 572.88 192.39 573.26 192.1C575.09 190.69 576.99 189.24 578.32 190.21L578.41 190.29C580.56 192.81 579.44 197.73 578.62 201.33C578.45 202.07 578.3 202.75 578.18 203.35C577.89 204.58 577.57 205.78 577.25 206.97C576.13 211.15 575.08 215.09 575.31 219.29C575.83 229.14 580.07 234.07 589.07 235.28C590.32 235.36 591.7 234.84 593.16 234.28C593.62 234.11 594.07 233.93 594.53 233.78C599.32 232.3 602.61 230.6 605.9 227.91C608.23 226.18 610.24 224.04 612.18 221.96C613.61 220.44 615.09 218.86 616.68 217.46C617.88 216.55 618.81 216.31 619.55 216.71C621.27 217.63 621 221.73 620.74 225.69C620.61 227.73 620.45 230.05 620.77 230.58L620.83 230.72C621.39 233.18 623.9 234.63 625.9 235.41C628.01 236.04 629.61 236.05 630.74 235.43C632.38 234.53 633 232.37 633.72 229.86C634.02 228.8 634.34 227.7 634.75 226.63C637.13 220.93 640.58 215.72 643.91 210.68L645 209.02C645.68 208.03 646.28 206.95 646.85 205.9C647.77 204.22 648.72 202.48 650.08 201.05C650.61 200.56 652.15 199.16 653.36 199.94C655.22 201.14 654.09 206.7 653.61 208.17C653.34 209.41 652.9 210.98 652.39 212.8C650.48 219.65 647.59 229.99 651.25 234.12C652.72 235.78 655.21 236.35 658.64 235.83C663.01 235.3 663.61 231.75 664.25 227.98C664.44 226.88 664.63 225.74 664.93 224.72C666.55 221.55 669.82 217.9 672.98 214.36C674.82 212.29 676.73 210.16 678.22 208.22L678.29 208.14C678.89 207.63 679.52 206.42 680.19 205.14C681.33 202.96 682.51 200.71 684.19 200.39C684.92 200.25 685.67 200.5 686.4 201.13C687.54 202.4 687.42 204.84 687.34 206.61C687.22 208.98 686.82 211.42 686.43 213.78C685.7 218.23 684.94 222.84 685.93 227.39C686.65 230.85 688.84 233.71 691.93 235.23C694.9 236.69 698.35 236.68 701.38 235.19C706.2 233.45 709.9 230.77 713.05 226.74C714.36 225.21 715.61 224.48 716.88 224.48C716.96 224.48 717.05 224.48 717.13 224.48C719.51 224.66 721.26 227.47 722.81 229.95L723.07 230.37C728 237.74 738.01 239.37 745.36 237.16C758.07 232.56 780.42 217.29 786.45 203.88C786.89 203.15 787.39 202.53 787.87 201.94C788.75 200.85 789.57 199.83 789.9 198.5C790.58 195.95 789.64 193.44 787.61 192.38L787.65 192.34ZM736.31 201.82C736.34 200.72 736.77 199.48 737.54 198.17L738.59 195.06C741.65 191.6 746.68 188.38 749.27 189.09C749.74 189.26 750.06 189.58 750.27 190.05L750.33 190.2C751.91 198.11 744.75 203.33 738.16 205.43L738.04 205.45C737.99 205.45 737.94 205.45 737.88 205.45C736.9 205.45 736.03 204.81 735.63 203.77L736.29 201.81L736.31 201.82Z" fill="#404040"/>
<path d="M736.31 201.82L737.54 198.17C736.76 199.48 736.34 200.72 736.31 201.82Z" fill="#404040"/>
<path d="M512.16 181.9C511.48 181.55 510.66 181.15 509.81 180.75C508.27 180.02 506.69 179.26 505.31 178.4C502.59 176.93 499.12 177.21 495.77 177.49C494.19 177.62 492.56 177.75 491.03 177.7C487.59 177.39 487.72 173.86 487.83 171.03C487.87 170.02 487.9 169.06 487.8 168.28C487.74 167.3 487.52 166.68 487.14 166.43C486.56 166.03 485.43 166.39 484.33 166.74C483.69 166.94 483.03 167.15 482.39 167.25C479.05 167.53 474.3 167.4 469.72 167.27C467.3 167.2 464.96 167.14 462.96 167.14C461.32 167.14 459.9 167.18 458.88 167.31C457.67 167.37 457.17 168.39 457.2 169.38C457.27 173.04 460.6 180.36 465.16 181.19C465.92 181.39 466.82 181.41 467.68 181.43C469.19 181.46 470.62 181.5 471.38 182.37C471.77 182.82 471.92 183.43 471.84 184.2C471.13 186.58 471.02 188.98 470.92 191.3C470.8 194.04 470.68 196.87 469.59 199.54C466.18 207.17 464.82 215.57 463.5 223.7C462.84 227.76 462.16 231.96 461.23 236.01C460.84 238.6 459.84 241.05 458.88 243.42C458.16 245.19 457.42 247.03 456.93 248.91C456.49 250.97 455.3 258.03 458.41 261.31C461.35 264.27 468.07 263.87 470.93 261.42C472.94 259.22 472.83 255.91 472.73 252.71C472.68 251.03 472.63 249.45 472.87 248.01C473.06 246.85 473.42 245.74 473.78 244.67L474.03 243.91C474.54 242.53 474.74 241.11 474.94 239.61C475.1 238.44 475.27 237.23 475.6 236.04C476.14 233.39 478.57 232 481.93 232.44C491.19 233.07 500.38 229.8 507.13 223.48C513.75 217.28 517.39 208.86 517.38 199.78C517.65 195.2 517.35 186.86 512.27 181.96L512.17 181.89L512.16 181.9ZM498.49 217.09C495.63 220.35 491.62 222.05 486.86 222.05C486.64 222.05 486.41 222.05 486.19 222.04C483.24 222.04 480.86 221.14 479.56 219.39C478.42 217.86 478.21 215.81 478.95 213.48L479 213.31C480.58 208.93 481.49 204.01 482.37 199.25C482.55 198.26 482.74 197.27 482.92 196.3C483.18 195.38 483.7 194.6 484.48 193.93C486.45 192.41 489.01 190.58 491.47 189.82C494.4 188.98 497.3 189.32 499.45 190.73C501.34 191.98 502.51 193.95 502.82 196.44C504.19 204.7 502.56 212.42 498.48 217.08L498.49 217.09Z" fill="#404040"/>
<path d="M602.67 172.88C601.42 174.4 600.49 177.03 598.57 178.34C595.54 180.69 590.96 184.15 587.91 181.68C587.4 181.16 587.14 180.44 586.99 179.69C586.5 177.05 586.52 171.94 587.21 169.41C587.48 168.37 588.12 167.62 589.21 167.38C591.6 166.92 594.33 167.25 596.44 165.71C599.83 163.55 604.61 158.78 607.8 159.79C612.01 161.44 608.71 167.39 606.89 169.82C605.79 171.22 603.85 171.8 602.79 172.78L602.68 172.89L602.67 172.88Z" fill="#404040"/>
<path d="M366.78 131.41L373.06 121.07C273.33 121.11 165.8 121.13 165.42 121.13C160.51 121.04 155.58 121.39 150.69 121.05C145.01 120.65 139.36 122.63 133.58 120.08C123.92 115.83 114.19 116.81 104.79 121.56C103.95 121.99 102.54 122.13 101.76 121.72C91.22 116.2 80.67 116.51 70.01 121.3C69.24 121.64 68.37 121.94 67.55 121.93C59.75 121.86 51.94 121.74 44.14 121.59C37.57 121.46 36.44 122.33 35.12 128.77C33.76 135.41 28.9 139.44 22.6 139.15C15.47 138.83 10.64 134.62 10.09 128.26C9.49 121.26 13.48 115.77 20.31 114.19C21.29 113.96 22.56 113.93 23.16 113.29C24.63 111.74 25.78 109.9 27.06 108.18C25.03 107.02 23 104.86 20.96 104.85C5.94 104.78 -2.87 119.86 0.850001 132.91C3.4 141.86 9.51 147.27 19.09 148.74C28.62 150.21 36.62 147.32 41.07 139.17C44.44 132.99 48.34 130.91 54.85 131.4C59.55 131.75 65.02 129.82 68.89 131.61C77.06 135.41 85.35 136.55 93.38 133.94C100.12 131.75 105.69 131.63 112.4 134.04C122.41 137.63 131.98 132.81 141.78 130.18C138.56 127.43 135.57 124.88 133.78 123.35C138.12 125.45 143.5 129.19 149.43 130.6C152.1 131.23 261.19 131.41 366.78 131.43V131.41ZM24.8 142.73C21.64 142.19 18.47 141.65 15.31 141.1C15.36 140.81 15.4 140.52 15.45 140.23C18.61 140.77 21.77 141.31 24.93 141.86C24.89 142.15 24.84 142.44 24.8 142.73ZM51.97 124.43C58.47 123.21 64.81 122.84 69.93 128.24C64.75 123.09 58.07 125.12 51.97 124.43ZM77.64 128.99C88.99 122.82 95.79 122.38 100.31 127.81C95.43 132.15 84.88 132.62 77.64 128.99ZM134.67 127.4C129.08 131.99 117 132.38 111.49 128.12C119.4 127.47 126.38 119.2 134.67 127.4Z" fill="#404040"/>
<path d="M608.22 120.84C602.84 120.12 597.82 120.89 592.33 120.8C592.31 120.8 592.27 120.8 592.23 120.8C589.59 120.88 554.77 120.95 477.99 121L471.63 131.37C544.05 131.32 581.94 131.24 591.13 131.24C591.14 131.24 591.15 131.24 591.16 131.24C612.49 131.57 612.98 130.09 618.37 128.35C620.66 127.61 623.05 126.97 625.38 126.25C619.53 123.79 613.96 121.61 608.21 120.83L608.22 120.84Z" fill="#404040"/>
</g>
<defs>
<clipPath id="clip0_1_2">
<rect width="790.15" height="263.4" fill="white"/>
</clipPath>
</defs>
</svg>
