<?xml version="1.0" encoding="UTF-8"?>
<svg id="Layer_2" data-name="Layer 2" xmlns="http://www.w3.org/2000/svg" viewBox="0 0 790.15 263.4">
  <defs>
    <style>
      .cls-1 {
        fill: #fff;
      }
    </style>
  </defs>
  <g id="Layer_1-2" data-name="Layer 1">
    <g>
      <path class="cls-1" d="M538.04,77c-1.88-.42-1.93.63-2.83,1.67-3.36,3.87-6.59,10.54-10.18,14.79-22.67,26.91-43.74,22.64-38.94-15.46-4.71-.37-7.35,4.84-10.49,6.98-3.69,2.51-16.49,8.63-17.96,12.01-1.4,10.45-1.77,21.47-7.1,30.86-6.33,11.14-16.59,19.24-29.84,20.1-18.61,1.2-33.1-12.17-18.88-28.86l41.38-24.55,1.93-16.54c-2.27,1.55-3.49,5.01-5.45,7.02-4.45,4.59-16.44,14.07-22.51,15.46-12.23,2.8-16.84-1.59-22.49-11.48-8.41,8.54-14.53,21.31-28.72,17.72-12.85-3.26-8.48-37.42-9.83-47.11-1.07-7.65-5.92-8.37-11.41-3.6-4.85,4.21-25.18,36.65-27.02,42.9-1.96,6.65.95,10.74-10.43,8.55-1.64-1.24-2.61-3.02-2.93-5.05-1.43-9.04,3.93-22.82,2.93-32.41-1.66.88-3.23,2.58-4.5,3.98-8.25,9.1-17.16,20.1-28.44,25.5-12.81,6.14-20.91,4.81-23.54-10.45-.48-2.79.23-16.04-1.94-16.02-2.28,3.45-3.64,7.53-6.06,10.9-3.81,5.31-19.56,21.2-25.4,22.55-15.05,3.46-17.8-8.85-20.5-20.5-8.59,6.75-15.59,20.32-28.23,20.73-2.09.07-7.06-.93-8.29-2.43-9.06-11.03.29-34.77.64-48.27.04-1.39.68-1.92-1.13-2.96-1.51-.38-4.4,1.29-5.77,2.15-4.06,2.56-21.91,27.51-25.06,32.88-2.01,3.43-6.15,15.87-8.81,17.17-3.7,1.81-10.87.06-10.83-4.75l8.64-46.49c-5.23-7.29-17.51,14.09-19.43,17.63-2.82,5.19-9.41,17.61-11.28,22.68-1.35,3.66-1.63,6.66-2.76,10.23-6.83,1.58-12.44.74-13.01-7.11-.18-2.49,1.55-6.28,1.84-9.06,1.48-14.42,4.19-29.07,1.52-43.37,25.29-12.43,11.92,18.49,13.58,31.52.18,1.39.53,2.89,1.98,1.48,3.4-6.27,5.46-15.62,9.17-21.35,2.82-4.35,12.27-14.79,16.77-17.15,3.92-2.06,9.65-4.19,13.07.02,5.67,6.97-3.61,32.02-2.02,41.48l7.16-15.31c4.02-7.18,19.66-25.64,27.51-27.43,8.52-1.94,14.23,2.3,13.95,11.12-.35,10.87-6.8,26.02-6.75,37.11.04,7.88,2.79,9.25,9.41,5.33,23.21-13.74,26.55-57.91,63.84-52.52,3.09.45,11.44,4.52,12.27,4.46.69-.06,2.72-2.83,5-3.69,3.27-1.23,7.04-1.08,10.47-1.02-3.44,14.09-9.82,30.9-6.29,45.76,2,8.4,8.73,4.74,14.32,1.72,5.45-2.94,10.82-9.24,14.92-14.05,1.84-2.16,12.97-16.22,13.49-17.5,1.11-2.79.08-4.2-.46-6.88,25.65-12.24,9.62,20.23,13.46,32.9,6.44-11.25,20.54-39.69,34.97-40.99,19.8-1.78,14.08,35.22,15.58,46.4,2.06,15.4,12.42,4.33,17.87-1.94,10.45-12.03,13.77-25.5,26.65-36.28,9.17-7.68,25.32-9.15,35.68-3.28,4.69-6.69,9.23-9.06,17.61-8.85-3.92,13.87-7.19,28.21-8.86,42.57-.2,1.68-1.21,6.88,1.39,6.39,7.03-1.32,26.55-21.55,32.98-26.97,13.71-11.56,23.19-20.74,42.44-13.52,1.83.69,3.87,3.21,4.48,3.26.81.07,9.16-6.66,14.97-5.79,5.47.82-1.26,11.01-2.23,14.77-2.09,8.1-3.22,22.51-2.26,30.74.96,8.24,6.29,6.74,11.9,3.87,8.64-4.43,28.32-25.89,32.14-34.79,1.5-3.51,7.5-32.11,6.95-35.01-.15-.8-.22-1.58-.96-2.08-4.45-.66-9.77-.07-13.09-3.9-1.3-1.5-4.75-9.57-1.45-9.56,4.8.02,10.31,3.03,15.95,3.11,6.03.08,9.86-2.52,15.5-3.07l-14.88,71.52c.56,5.37-3.38,14.91.43,19.34,7.47,8.68,24.77-11.1,28.85-17.03,2.64-3.84,10.47-19.75,13.57-21.44,1.07-.58,1.96-.68,3,0,4.79,2.49-1.14,10.68-2.99,14.04-5.32,9.71-18.76,28.03-27.64,34.29-15.18,10.7-29.14,3.55-29.84-14.79-.09-2.25,2.57-12.05.03-12-6.25,6.37-13.85,14.6-21,19.94-6.5,4.85-16.11,9.95-23.98,5.04-2.33-1.45-5.47-8.12-5.47-10.51v-17.48ZM225.69,88.32c1.52-1.28,3.81-1.95,5.16-3.34,7.89-8.16,13.3-19.57,20.99-27.97,2.41-3.35-8.17-7.46-10.84-8.15-3.32-.86-6.74-1.18-10.15-.83-13.14,1.34-21.08,26.12-19.23,37.22.9,5.39,4.99,11.05,10.7,7.19,1.85-1.25,2.28-3.19,3.37-4.11ZM431.9,49.24c-2.54.37-10.78,4.64-12.67,6.35-6.49,5.88-15.53,36.32-2.33,33.73,7.8-1.53,17.27-10.75,22.21-16.85,1.74-2.15,8.32-12.19,8.84-14.2,1.49-5.75-11.18-9.74-16.05-9.03ZM517.83,51.21c-.99.16-6.13,2.34-7.11,2.96-8.89,5.58-19.44,45.57-3.38,42.65,2.61-.47,11.91-10.21,14.24-12.82,3.11-3.48,16.82-21.4,17.34-24.71.8-5.13-17.1-8.74-21.09-8.08ZM441.79,105.08c-6.84,6.14-26.79,12.13-29.66,20.31-5.33,15.19,9.6,18.22,19.94,10.95,9.78-6.88,10.38-18.96,12.02-29.78l-2.29-1.48Z"/>
      <path class="cls-1" d="M699.27,125.78c-1.88-3.29-3.55-6.74-4.95-10.26-1.36-3.38-2.16-7.39-2.37-11.92-.24-5.55.11-10.55,1.03-14.85.95-4.4,2.09-8.67,3.4-12.69,1.35-4.17,2.53-8.46,3.52-12.77,1.01-4.43,1.4-9.48,1.15-15,0-3.11-.58-6.97-1.71-11.47-1.13-4.52-2.91-9.18-5.3-13.83-2.41-4.7-5.63-9.07-9.56-13.01-4.08-4.07-9.18-6.93-15.16-8.48l-5.74-1.49,2.94,5.15c1.83,3.21,3.41,7.13,4.68,11.63,1.28,4.54,2.04,9.32,2.27,14.19.23,5.57-.12,10.44-1.03,14.45-.95,4.15-2.09,8.17-3.39,11.94-1.36,3.94-2.54,7.93-3.52,11.86-1.03,4.08-1.42,8.96-1.17,14.51,0,2.86.52,6.47,1.53,10.71,1.01,4.29,2.67,8.77,4.93,13.29,2.3,4.6,5.53,8.94,9.6,12.88,4.16,4.03,9.54,7,16,8.81l5.88,1.65-3.03-5.3Z"/>
      <g>
        <path class="cls-1" d="M737.9,205.46c.05,0,.1,0,.16,0l.12-.02c6.6-2.09,13.75-7.32,12.17-15.23l-.06-.15c-.21-.47-.54-.79-1-.96-2.59-.71-7.62,2.51-10.68,5.97l-1.05,3.11c.47-.8,1.07-1.62,1.8-2.45,2.84-3.21,6.95-5.75,9.1-5.75.2,0,.38.02.54.07.11.04.26.12.39.41h0s.02.03.02.03c1.42,7.15-5.27,11.98-11.46,13.97-.71,0-1.15-.52-1.35-1.05-.2-.48-.28-1.02-.27-1.59l-.66,1.96c.4,1.04,1.27,1.68,2.25,1.68Z"/>
        <path class="cls-1" d="M787.65,192.34c-1.24-.73-2.29-.96-3.23-.71-1.81.47-3.1,2.71-4.34,4.87-.77,1.34-1.58,2.74-2.52,3.72l-.68.74c-8.03,8.68-20.16,21.79-31.73,23.06-3.68.35-6.43-.03-8.4-1.16-2.03-1.17-3.24-3.02-2.88-4.39.21-.79.96-1.73,3.42-1.76,8.83-.48,17.89-5.02,23.07-11.55,3.72-4.69,5.17-10.06,4.19-15.53-.59-2.74-3.35-6.04-5.56-7.4-1.12-.72-2.93-.79-4.86-.85-.39-.01-.77-.03-1.16-.04-5.18-.13-12.36-.09-15.39.21-1.98.2-3.43,1.26-5.11,2.49-.27.2-.54.4-.82.6-6.38,4.08-8.41,9.16-10.55,14.54-1.22,3.07-2.49,6.24-4.6,9.42-2.26,2.98-5.38,6.03-8.13,8.72-.59.58-1.16,1.14-1.71,1.68-1.78,1.91-3.82,2.78-5.33,2.25-.83-.29-1.85-1.14-2.01-3.51-.08-4.58,1.11-9.34,2.27-13.95.77-3.08,1.5-5.98,1.88-8.82.83-6.07.26-9.83-1.8-11.82-2.68-2.59-7.88-2.29-15.96-.89-.61.22-1.21.63-1.94,1.36-1.28,1.32-3.37,3.48-5.55,5.74l-4,4.14c-.43.42-.93.95-1.44,1.5-2.11,2.23-2.78,2.86-3.34,2.67-.17-.03-.32-.13-.44-.27-.25-.31-.42-.9-.05-3.06.14-.81.34-1.62.52-2.4.66-2.8,1.29-5.44-.06-7.98-1.55-2.32-4.83-4.79-8.87-4l-1.01.23c-2.98.66-6.05,1.35-8.43,3.13-2.8,2.15-5.62,6.83-8,11.13-.99,1.84-1.82,2.75-2.71,2.92-.64.07-1.16-.1-1.57-.48-1.24-1.15-1.18-3.99-1.14-5.87v-.49c0-2.25-.44-4.07-1.32-5.4-1.06-1.65-2.9-2.69-5.19-2.91-2.71-.27-5.64.68-7.28,2.37-1.21,1.32-1.15,3.07-1.09,4.92.06,1.71.12,3.48-.84,5.02-2.5,4.44-8.73,11.67-13.59,16.51-1.22,1.2-2.56,2.1-3.98,3.05-1.39.93-2.83,1.88-4.13,3.15-.5.45-.95.96-1.39,1.45-.96,1.07-1.95,2.18-3.39,2.76-.93.33-3.24.98-4.95-.02l-.14-.1c-1.52-1.36-.11-5.05,1.14-8.31.45-1.18.88-2.29,1.01-2.94.92-2.43.88-4.89.84-7.49-.03-1.55-.05-3.16.14-4.75.14-1.01.46-1.99.76-2.93.45-1.42.88-2.76.77-4.17-.41-4.89-5.67-5.47-10.31-5.99-1.28-.14-2.49-.28-3.56-.49-3.16-.83-5.2-2.38-7.01-3.75-3.11-2.36-5.36-4.06-11.42-.22-1.21.6-2.45.89-3.65,1.18-1.82.44-3.53.85-4.75,2.15-.61.61-1.29,1.26-2.01,1.95-2.17,2.09-4.63,4.45-6.14,6.48-.21.31-.4.69-.6,1.1-.42.83-.85,1.7-1.63,2.24-.57.32-1,.33-1.33.08-.66-.51-.38-1.78.1-3.66.13-.51.28-1.09.28-1.29.11-2.29-.39-5.6-2.15-7.5-.87-.94-1.96-1.43-3.24-1.46-3.95,0-6.68.85-8.31,2.56-2.48,2.6-2.28,7.08-2.07,11.82.11,2.5.23,5.09-.03,7.6-.55,5.49-1.66,11.36-2.73,17.04l-.2,1.05c-.2.88-.48,1.66-.75,2.42-.45,1.26-.87,2.45-.81,3.77.12,1.91,1.55,4.36,3.19,5.45,2.78,1.67,7.73,1.33,9.8-.69,1.48-1.48,1.95-3.86,2.49-6.61l.08-.39c.73-4.34,2.13-7.77,4.7-11.42,1.13-1.59,2.23-3.23,3.3-4.81,3.29-4.89,6.4-9.51,10.31-12.72l.13-.1c4.63-3.38,5.46-3.98,11.02-2.38,1.83.3,3.4-.49,4.38-1.2.37-.27.75-.56,1.13-.85,1.83-1.41,3.73-2.86,5.06-1.89l.09.08c2.15,2.52,1.03,7.44.21,11.04-.17.74-.32,1.42-.44,2.02-.29,1.23-.61,2.43-.93,3.62-1.12,4.18-2.17,8.12-1.94,12.32.52,9.85,4.76,14.78,13.76,15.99,1.25.08,2.63-.44,4.09-1,.46-.17.91-.35,1.37-.5,4.79-1.48,8.08-3.18,11.37-5.87,2.33-1.73,4.34-3.87,6.28-5.95,1.43-1.52,2.91-3.1,4.5-4.5,1.2-.91,2.13-1.15,2.87-.75,1.72.92,1.45,5.02,1.19,8.98-.13,2.04-.29,4.36.03,4.89l.06.14c.56,2.46,3.07,3.91,5.07,4.69,2.11.63,3.71.64,4.84.02,1.64-.9,2.26-3.06,2.98-5.57.3-1.06.62-2.16,1.03-3.23,2.38-5.7,5.83-10.91,9.16-15.95l1.09-1.66c.68-.99,1.28-2.07,1.85-3.12.92-1.68,1.87-3.42,3.23-4.85.53-.49,2.07-1.89,3.28-1.11,1.86,1.2.73,6.76.25,8.23-.27,1.24-.71,2.81-1.22,4.63-1.91,6.85-4.8,17.19-1.14,21.32,1.47,1.66,3.96,2.23,7.39,1.71,4.37-.53,4.97-4.08,5.61-7.85.19-1.1.38-2.24.68-3.26,1.62-3.17,4.89-6.82,8.05-10.36,1.84-2.07,3.75-4.2,5.24-6.14l.07-.08c.6-.51,1.23-1.72,1.9-3,1.14-2.18,2.32-4.43,4-4.75.73-.14,1.48.11,2.21.74,1.14,1.27,1.02,3.71.94,5.48-.12,2.37-.52,4.81-.91,7.17-.73,4.45-1.49,9.06-.5,13.61.72,3.46,2.91,6.32,6,7.84,2.97,1.46,6.42,1.45,9.45-.04,4.82-1.74,8.52-4.42,11.67-8.45,1.31-1.53,2.56-2.26,3.83-2.26.08,0,.17,0,.25,0,2.38.18,4.13,2.99,5.68,5.47l.26.42c4.93,7.37,14.94,9,22.29,6.79,12.71-4.6,35.06-19.87,41.09-33.28.44-.73.94-1.35,1.42-1.94.88-1.09,1.7-2.11,2.03-3.44.68-2.55-.26-5.06-2.29-6.12ZM736.31,201.82c.03-1.1.46-2.34,1.23-3.65l1.05-3.11c3.06-3.46,8.09-6.68,10.68-5.97.47.17.79.49,1,.96l.06.15c1.58,7.91-5.58,13.13-12.17,15.23l-.12.02c-.05,0-.1,0-.16,0-.98,0-1.85-.64-2.25-1.68l.66-1.96Z"/>
        <path class="cls-1" d="M736.31,201.82l1.23-3.65c-.78,1.31-1.2,2.55-1.23,3.65Z"/>
        <path class="cls-1" d="M512.16,181.9c-.68-.35-1.5-.75-2.35-1.15-1.54-.73-3.12-1.49-4.5-2.35-2.72-1.47-6.19-1.19-9.54-.91-1.58.13-3.21.26-4.74.21-3.44-.31-3.31-3.84-3.2-6.67.04-1.01.07-1.97-.03-2.75-.06-.98-.28-1.6-.66-1.85-.58-.4-1.71-.04-2.81.31-.64.2-1.3.41-1.94.51-3.34.28-8.09.15-12.67.02-2.42-.07-4.76-.13-6.76-.13-1.64,0-3.06.04-4.08.17-1.21.06-1.71,1.08-1.68,2.07.07,3.66,3.4,10.98,7.96,11.81.76.2,1.66.22,2.52.24,1.51.03,2.94.07,3.7.94.39.45.54,1.06.46,1.83-.71,2.38-.82,4.78-.92,7.1-.12,2.74-.24,5.57-1.33,8.24-3.41,7.63-4.77,16.03-6.09,24.16-.66,4.06-1.34,8.26-2.27,12.31-.39,2.59-1.39,5.04-2.35,7.41-.72,1.77-1.46,3.61-1.95,5.49-.44,2.06-1.63,9.12,1.48,12.4,2.94,2.96,9.66,2.56,12.52.11,2.01-2.2,1.9-5.51,1.8-8.71-.05-1.68-.1-3.26.14-4.7.19-1.16.55-2.27.91-3.34l.25-.76c.51-1.38.71-2.8.91-4.3.16-1.17.33-2.38.66-3.57.54-2.65,2.97-4.04,6.33-3.6,9.26.63,18.45-2.64,25.2-8.96,6.62-6.2,10.26-14.62,10.25-23.7.27-4.58-.03-12.92-5.11-17.82l-.1-.07ZM498.49,217.09c-2.86,3.26-6.87,4.96-11.63,4.96-.22,0-.45,0-.67-.01-2.95,0-5.33-.9-6.63-2.65-1.14-1.53-1.35-3.58-.61-5.91l.05-.17c1.58-4.38,2.49-9.3,3.37-14.06.18-.99.37-1.98.55-2.95.26-.92.78-1.7,1.56-2.37,1.97-1.52,4.53-3.35,6.99-4.11,2.93-.84,5.83-.5,7.98.91,1.89,1.25,3.06,3.22,3.37,5.71,1.37,8.26-.26,15.98-4.34,20.64Z"/>
      </g>
      <path class="cls-1" d="M602.67,172.88c-1.25,1.52-2.18,4.15-4.1,5.46-3.03,2.35-7.61,5.81-10.66,3.34-.51-.52-.77-1.24-.92-1.99-.49-2.64-.47-7.75.22-10.28.27-1.04.91-1.79,2-2.03,2.39-.46,5.12-.13,7.23-1.67,3.39-2.16,8.17-6.93,11.36-5.92,4.21,1.65.91,7.6-.91,10.03-1.1,1.4-3.04,1.98-4.1,2.96l-.11.11Z"/>
      <g>
        <path class="cls-1" d="M366.78,131.41l6.28-10.34c-99.73.04-207.26.06-207.64.06-4.91-.09-9.84.26-14.73-.08-5.68-.4-11.33,1.58-17.11-.97-9.66-4.25-19.39-3.27-28.79,1.48-.84.43-2.25.57-3.03.16-10.54-5.52-21.09-5.21-31.75-.42-.77.34-1.64.64-2.46.63-7.8-.07-15.61-.19-23.41-.34-6.57-.13-7.7.74-9.02,7.18-1.36,6.64-6.22,10.67-12.52,10.38-7.13-.32-11.96-4.53-12.51-10.89-.6-7,3.39-12.49,10.22-14.07.98-.23,2.25-.26,2.85-.9,1.47-1.55,2.62-3.39,3.9-5.11-2.03-1.16-4.06-3.32-6.1-3.33-15.02-.07-23.83,15.01-20.11,28.06,2.55,8.95,8.66,14.36,18.24,15.83,9.53,1.47,17.53-1.42,21.98-9.57,3.37-6.18,7.27-8.26,13.78-7.77,4.7.35,10.17-1.58,14.04.21,8.17,3.8,16.46,4.94,24.49,2.33,6.74-2.19,12.31-2.31,19.02.1,10.01,3.59,19.58-1.23,29.38-3.86-3.22-2.75-6.21-5.3-8-6.83,4.34,2.1,9.72,5.84,15.65,7.25,2.67.63,111.76.81,217.35.83ZM24.8,142.73c-3.16-.54-6.33-1.08-9.49-1.63.05-.29.09-.58.14-.87,3.16.54,6.32,1.08,9.48,1.63-.04.29-.09.58-.13.87ZM51.97,124.43c6.5-1.22,12.84-1.59,17.96,3.81-5.18-5.15-11.86-3.12-17.96-3.81ZM77.64,128.99c11.35-6.17,18.15-6.61,22.67-1.18-4.88,4.34-15.43,4.81-22.67,1.18ZM134.67,127.4c-5.59,4.59-17.67,4.98-23.18.72,7.91-.65,14.89-8.92,23.18-.72Z"/>
        <path class="cls-1" d="M608.22,120.84c-5.38-.72-10.4.05-15.89-.04-.02,0-.06,0-.1,0-2.64.08-37.46.15-114.24.2l-6.36,10.37c72.42-.05,110.31-.13,119.5-.13.01,0,.02,0,.03,0,21.33.33,21.82-1.15,27.21-2.89,2.29-.74,4.68-1.38,7.01-2.1-5.85-2.46-11.42-4.64-17.17-5.42Z"/>
      </g>
    </g>
  </g>
</svg>